<?xml version="1.0" encoding="UTF-8" standalone="no"?>
<!-- Created with Inkscape (http://www.inkscape.org/) -->

<svg
   width="210mm"
   height="210mm"
   viewBox="0 0 210 210"
   version="1.1"
   id="svg1"
   xml:space="preserve"
   inkscape:export-filename="icon.svg"
   inkscape:export-xdpi="125.79047"
   inkscape:export-ydpi="125.79047"
   xmlns:inkscape="http://www.inkscape.org/namespaces/inkscape"
   xmlns:sodipodi="http://sodipodi.sourceforge.net/DTD/sodipodi-0.dtd"
   xmlns="http://www.w3.org/2000/svg"
   xmlns:svg="http://www.w3.org/2000/svg"><sodipodi:namedview
     id="namedview1"
     pagecolor="#000000"
     bordercolor="#000000"
     borderopacity="0.25"
     inkscape:showpageshadow="2"
     inkscape:pageopacity="0.0"
     inkscape:pagecheckerboard="0"
     inkscape:deskcolor="#d1d1d1"
     inkscape:document-units="mm"
     inkscape:zoom="0.70710678"
     inkscape:cx="548.00775"
     inkscape:cy="429.21381"
     inkscape:window-width="1920"
     inkscape:window-height="991"
     inkscape:window-x="-9"
     inkscape:window-y="-9"
     inkscape:window-maximized="1"
     inkscape:current-layer="g2" /><defs
     id="defs1" /><g
     inkscape:label="Layer 1"
     inkscape:groupmode="layer"
     id="layer1"><g
       id="g1"
       transform="translate(-1.6665965,0.03216846)"><g
         id="g3"
         transform="matrix(1.0900469,0,0,1.0900469,-9.6049964,-9.4520278)"><g
           id="g2"><path
             style="fill:#ffffff;fill-opacity:1;stroke-width:41.8161"
             d="M 64.639126,176.58431 22.64075,152.71969 V 104.75216 56.784622 L 64.083351,33.205716 C 86.876771,20.23731 105.95369,9.5644286 106.47648,9.4882066 c 0.71004,-0.104878 11.49129,5.8571964 42.58321,23.5428974 l 41.63275,23.681445 v 48.040101 48.03998 l -40.68222,23.13286 c -22.37522,12.72316 -41.28754,23.44581 -42.02744,23.82816 l -1.34523,0.69516 z m 47.159704,-69.21262 c 7.3193,-14.401151 13.3078,-26.267426 13.3078,-26.369369 0,-0.230507 -9.92642,-5.141758 -10.07411,-4.982851 -0.0585,0.06105 -6.11469,11.940424 -13.45627,26.39219 l -13.348268,26.27609 4.846913,2.41454 c 2.665783,1.32812 4.974996,2.42318 5.131554,2.43415 0.154775,0.01 6.273091,-11.76334 13.592381,-26.16462 z m -41.541905,16.36957 3.905216,-3.82912 -7.69744,-7.57991 -7.6974,-7.58007 7.6974,-7.579921 7.69744,-7.579941 -3.996794,-3.918998 -3.996796,-3.919121 -11.68683,11.498199 -11.686782,11.498322 11.59241,11.4099 c 6.375843,6.27547 11.676123,11.41003 11.77841,11.41003 0.100012,0 1.943193,-1.72327 4.091287,-3.82912 z M 159.3253,116.16132 170.91699,104.75216 159.3253,93.342871 c -6.3754,-6.274973 -11.76087,-11.409167 -11.9677,-11.409167 -0.20489,0 -2.13345,1.723267 -4.28139,3.829122 l -3.90521,3.829102 7.6974,7.579941 7.69743,7.580041 -7.69517,7.57774 -7.69517,7.57774 3.89433,3.83168 c 2.14182,2.10707 4.06746,3.83156 4.27912,3.83156 0.21331,0 5.60112,-5.13419 11.97655,-11.40918 z"
             id="path1" /></g></g></g></g></svg>
