<?xml version="1.0" encoding="UTF-8" standalone="no"?>
<!-- Created with Inkscape (http://www.inkscape.org/) -->

<svg
   width="210mm"
   height="210mm"
   viewBox="0 0 210 210"
   version="1.1"
   id="svg1"
   xml:space="preserve"
   xmlns:inkscape="http://www.inkscape.org/namespaces/inkscape"
   xmlns:sodipodi="http://sodipodi.sourceforge.net/DTD/sodipodi-0.dtd"
   xmlns="http://www.w3.org/2000/svg"
   xmlns:svg="http://www.w3.org/2000/svg"><sodipodi:namedview
     id="namedview1"
     pagecolor="#ffffff"
     bordercolor="#000000"
     borderopacity="0.25"
     inkscape:showpageshadow="2"
     inkscape:pageopacity="0.0"
     inkscape:pagecheckerboard="0"
     inkscape:deskcolor="#d1d1d1"
     inkscape:document-units="mm" /><defs
     id="defs1"><rect
       x="127.0777"
       y="275.33502"
       width="523.84253"
       height="170.84891"
       id="rect1" /><rect
       x="127.0777"
       y="275.33502"
       width="523.84253"
       height="170.84891"
       id="rect1-8" /><rect
       x="127.0777"
       y="275.33502"
       width="523.84253"
       height="170.84891"
       id="rect1-3" /><rect
       x="127.0777"
       y="275.33502"
       width="523.84253"
       height="170.84891"
       id="rect1-3-5" /></defs><g
     inkscape:label="Layer 1"
     inkscape:groupmode="layer"
     id="layer1"><g
       id="g1"
       transform="translate(-1.6665965,0.03216846)"><g
         id="g3"
         transform="matrix(1.0900469,0,0,1.0900469,-9.6049964,-9.4520278)"><g
           id="g2"><text
             xml:space="preserve"
             transform="matrix(0.90718677,0,0,0.90718677,-95.879579,-162.42977)"
             id="text1"
             style="font-style:normal;font-variant:normal;font-weight:normal;font-stretch:normal;font-size:29.3333px;font-family:Cubic;-inkscape-font-specification:'Cubic, Normal';font-variant-ligatures:normal;font-variant-caps:normal;font-variant-numeric:normal;font-variant-east-asian:normal;white-space:pre;shape-inside:url(#rect1);fill:#000000;fill-opacity:1;stroke:#000000;stroke-width:0;stroke-miterlimit:4.1;paint-order:stroke fill markers"><tspan
               x="127.07812"
               y="301.00257"
               id="tspan3">C</tspan></text><text
             xml:space="preserve"
             transform="matrix(0.90718677,0,0,0.90718677,-64.937504,-162.42977)"
             id="text1-5"
             style="font-style:normal;font-variant:normal;font-weight:normal;font-stretch:normal;font-size:29.3333px;font-family:Cubic;-inkscape-font-specification:'Cubic, Normal';font-variant-ligatures:normal;font-variant-caps:normal;font-variant-numeric:normal;font-variant-east-asian:normal;white-space:pre;shape-inside:url(#rect1-3);fill:#000000;fill-opacity:1;stroke:#000000;stroke-width:0;stroke-miterlimit:4.1;paint-order:stroke fill markers"><tspan
               x="127.07812"
               y="301.00257"
               id="tspan4">D</tspan></text><text
             xml:space="preserve"
             transform="matrix(0.90718677,0,0,0.90718677,-45.029709,-162.42977)"
             id="text1-5-9"
             style="font-style:normal;font-variant:normal;font-weight:normal;font-stretch:normal;font-size:29.3333px;font-family:Cubic;-inkscape-font-specification:'Cubic, Normal';font-variant-ligatures:normal;font-variant-caps:normal;font-variant-numeric:normal;font-variant-east-asian:normal;white-space:pre;shape-inside:url(#rect1-3-5);fill:#000000;fill-opacity:1;stroke:#000000;stroke-width:0;stroke-miterlimit:4.1;paint-order:stroke fill markers"><tspan
               x="127.07812"
               y="301.00257"
               id="tspan5">E</tspan></text><text
             xml:space="preserve"
             transform="matrix(1.062311,0,0,1.0634303,-44.288413,-205.57479)"
             id="text1-9"
             style="font-style:normal;font-variant:normal;font-weight:normal;font-stretch:normal;font-size:29.3333px;font-family:Forte;-inkscape-font-specification:'Forte, Normal';font-variant-ligatures:normal;font-variant-caps:normal;font-variant-numeric:normal;font-variant-east-asian:normal;white-space:pre;shape-inside:url(#rect1-8);fill:#000000;fill-opacity:1;stroke:#000000;stroke-width:0;stroke-miterlimit:4.1;paint-order:stroke fill markers"><tspan
               x="127.07812"
               y="301.26102"
               id="tspan6">Synergy</tspan></text><path
             style="fill:#000000;stroke-width:3.42874"
             d="m 39.497075,110.87983 -3.443676,-1.95679 v -3.93312 -3.93312 l 3.398105,-1.933364 c 1.868957,-1.063351 3.433178,-1.938478 3.476044,-1.944728 0.05822,-0.0086 0.942234,0.480263 3.49163,1.93041 l 3.413696,1.941772 v 3.93907 3.93906 l -3.335757,1.89679 c -1.834666,1.04324 -3.385391,1.92245 -3.446059,1.9538 l -0.110303,0.057 z m 3.866882,-5.67512 c 0.600149,-1.18083 1.091179,-2.15381 1.091179,-2.16217 0,-0.0189 -0.813921,-0.4216 -0.826031,-0.40857 -0.0048,0.005 -0.501377,0.97906 -1.103354,2.16404 l -1.094497,2.15452 0.397425,0.19798 c 0.218582,0.1089 0.407927,0.19869 0.420764,0.19959 0.01269,8.7e-4 0.514365,-0.96454 1.114514,-2.14538 z m -3.406248,1.34223 0.32021,-0.31397 -0.631155,-0.62152 -0.631152,-0.62153 0.631152,-0.62152 0.631155,-0.62152 -0.327719,-0.32134 -0.327719,-0.32135 -0.958267,0.9428 -0.958263,0.94281 0.950525,0.93556 c 0.52279,0.51456 0.957389,0.93557 0.965776,0.93557 0.0082,0 0.159333,-0.1413 0.335467,-0.31397 z m 7.303204,-0.62152 0.950463,-0.9355 -0.950463,-0.93551 c -0.522756,-0.51452 -0.964339,-0.9355 -0.981298,-0.9355 -0.0168,0 -0.174934,0.1413 -0.351055,0.31397 l -0.320209,0.31397 0.631151,0.62152 0.631155,0.62153 -0.630969,0.62134 -0.63097,0.62134 0.319318,0.31418 c 0.17562,0.17277 0.333513,0.31417 0.350869,0.31417 0.01749,0 0.459266,-0.42098 0.982022,-0.9355 z"
             id="path1" /></g></g></g></g></svg>
